<svg xmlns="http://www.w3.org/2000/svg" viewBox="0 0 128 128"><rect x="2" y="2" width="124" height="124" rx="30" fill="#e5f5f1"/><ellipse cx="63" cy="104" rx="42" ry="7" fill="#bfe1d9"/><path d="M91 53h8c17 0 17 28 0 28h-10" fill="none" stroke="#30958e" stroke-width="9"/><path d="M25 53h69c-2 36-12 47-35 47S28 89 25 53" fill="#40a39a"/><ellipse cx="59" cy="53" rx="35" ry="13" fill="#f2dec9"/><path d="M27 51c-1-12 11-18 19-13 3-16 24-18 29-3 13-5 21 8 17 16" fill="#fff7ea"/><ellipse cx="59" cy="48" rx="21" ry="8" fill="#f2eadc"/><g fill="#bd8967"><circle cx="48" cy="44" r="2"/><circle cx="62" cy="40" r="2"/><circle cx="69" cy="49" r="2"/><circle cx="55" cy="52" r="2"/></g><path d="M37 71c2 10 5 15 10 17" fill="none" stroke="#fff" stroke-opacity=".55" stroke-width="5" stroke-linecap="round"/></svg>
